<mxfile host="Electron" agent="Mozilla/5.0 (Windows NT 10.0; Win64; x64) AppleWebKit/537.36 (KHTML, like Gecko) draw.io/24.7.5 Chrome/126.0.6478.183 Electron/31.3.0 Safari/537.36" version="24.7.5">
  <diagram name="第 1 页" id="rjt4TvfhB3kIMEqw2SIt">
    <mxGraphModel dx="1680" dy="592" grid="0" gridSize="10" guides="1" tooltips="1" connect="1" arrows="1" fold="1" page="0" pageScale="1" pageWidth="827" pageHeight="1169" math="0" shadow="0">
      <root>
        <mxCell id="0" />
        <mxCell id="1" parent="0" />
        <mxCell id="hbUotnrX8_8MGM3nDu8A-1" value="Thread" style="rounded=1;whiteSpace=wrap;html=1;fillColor=#ffe6cc;strokeColor=#d79b00;" parent="1" vertex="1">
          <mxGeometry x="-107" y="65" width="368" height="139" as="geometry" />
        </mxCell>
        <mxCell id="eSL_qnw7aD_urTCDF0X3-1" value="ThreadLocal.ThreadLocalMap" style="rounded=1;whiteSpace=wrap;html=1;fillColor=#dae8fc;strokeColor=#6c8ebf;" vertex="1" parent="1">
          <mxGeometry x="-97" y="139" width="169" height="50" as="geometry" />
        </mxCell>
        <mxCell id="eSL_qnw7aD_urTCDF0X3-3" value="ThreadLocal" style="whiteSpace=wrap;html=1;fillColor=#ffe6cc;strokeColor=#d79b00;rounded=1;" vertex="1" parent="1">
          <mxGeometry x="-101" y="309" width="366" height="131" as="geometry" />
        </mxCell>
        <mxCell id="eSL_qnw7aD_urTCDF0X3-8" value="" style="edgeStyle=none;curved=0;rounded=1;orthogonalLoop=1;jettySize=auto;html=1;fontSize=12;startSize=8;endSize=8;entryX=0.216;entryY=0.008;entryDx=0;entryDy=0;entryPerimeter=0;" edge="1" parent="1" source="eSL_qnw7aD_urTCDF0X3-5" target="eSL_qnw7aD_urTCDF0X3-7">
          <mxGeometry relative="1" as="geometry" />
        </mxCell>
        <mxCell id="eSL_qnw7aD_urTCDF0X3-5" value="ThreadLocalMap" style="rounded=1;whiteSpace=wrap;html=1;fillColor=#dae8fc;strokeColor=#6c8ebf;" vertex="1" parent="1">
          <mxGeometry x="-84" y="364" width="120" height="56" as="geometry" />
        </mxCell>
        <mxCell id="eSL_qnw7aD_urTCDF0X3-6" value="" style="edgeStyle=none;curved=1;rounded=0;orthogonalLoop=1;jettySize=auto;html=1;fontSize=12;startSize=8;endSize=8;" edge="1" parent="1" source="eSL_qnw7aD_urTCDF0X3-1">
          <mxGeometry relative="1" as="geometry">
            <mxPoint x="-12" y="360" as="targetPoint" />
          </mxGeometry>
        </mxCell>
        <mxCell id="eSL_qnw7aD_urTCDF0X3-7" value="Entry" style="whiteSpace=wrap;html=1;fillColor=#ffe6cc;strokeColor=#d79b00;rounded=1;" vertex="1" parent="1">
          <mxGeometry x="-101" y="529" width="366" height="131" as="geometry" />
        </mxCell>
        <mxCell id="eSL_qnw7aD_urTCDF0X3-9" value="WeakPrference" style="rounded=1;whiteSpace=wrap;html=1;fillColor=#dae8fc;strokeColor=#6c8ebf;" vertex="1" parent="1">
          <mxGeometry x="120" y="537" width="120" height="44" as="geometry" />
        </mxCell>
        <mxCell id="eSL_qnw7aD_urTCDF0X3-10" value="value" style="rounded=1;whiteSpace=wrap;html=1;fillColor=#dae8fc;strokeColor=#6c8ebf;" vertex="1" parent="1">
          <mxGeometry x="122" y="599" width="120" height="44" as="geometry" />
        </mxCell>
        <mxCell id="eSL_qnw7aD_urTCDF0X3-11" value="&lt;div&gt;Thread&lt;/div&gt;&lt;div&gt;&amp;nbsp; └── threadLocals (ThreadLocalMap)&lt;/div&gt;&lt;div&gt;&amp;nbsp; &amp;nbsp; &amp;nbsp; &amp;nbsp; ├── Entry[0]&lt;/div&gt;&lt;div&gt;&amp;nbsp; &amp;nbsp; &amp;nbsp; &amp;nbsp; │&amp;nbsp; &amp;nbsp; ├── WeakReference(ThreadLocal) --&amp;gt; ❌（被GC了）&lt;/div&gt;&lt;div&gt;&amp;nbsp; &amp;nbsp; &amp;nbsp; &amp;nbsp; │&amp;nbsp; &amp;nbsp; └── value (Strong Reference) --&amp;gt; 还在！❗&lt;/div&gt;&lt;div&gt;&amp;nbsp; &amp;nbsp; &amp;nbsp; &amp;nbsp; ├── Entry[1]&lt;/div&gt;&lt;div&gt;&amp;nbsp; &amp;nbsp; &amp;nbsp; &amp;nbsp; │&amp;nbsp; &amp;nbsp; ├── WeakReference(ThreadLocal) --&amp;gt; 正常&lt;/div&gt;&lt;div&gt;&amp;nbsp; &amp;nbsp; &amp;nbsp; &amp;nbsp; │&amp;nbsp; &amp;nbsp; └── value (Strong Reference)&lt;/div&gt;&lt;div&gt;&amp;nbsp; &amp;nbsp; &amp;nbsp; &amp;nbsp; └── ...&lt;/div&gt;" style="text;html=1;align=left;verticalAlign=middle;whiteSpace=wrap;rounded=0;fontSize=16;" vertex="1" parent="1">
          <mxGeometry x="-644" y="45" width="463" height="196" as="geometry" />
        </mxCell>
        <mxCell id="eSL_qnw7aD_urTCDF0X3-14" value="&lt;h2 class=&quot;&quot; data-end=&quot;382&quot; data-start=&quot;362&quot;&gt;👉 真正内存泄漏发生在什么场景？&lt;/h2&gt;&lt;p class=&quot;&quot; data-end=&quot;404&quot; data-start=&quot;384&quot;&gt;&lt;strong data-end=&quot;404&quot; data-start=&quot;384&quot;&gt;问题是——线程很多时候不会销毁！&lt;/strong&gt;&lt;/p&gt;&lt;p class=&quot;&quot; data-end=&quot;409&quot; data-start=&quot;406&quot;&gt;比如：&lt;/p&gt;&lt;ul data-end=&quot;457&quot; data-start=&quot;410&quot;&gt;&lt;li class=&quot;&quot; data-end=&quot;421&quot; data-start=&quot;410&quot;&gt;&lt;p class=&quot;&quot; data-end=&quot;421&quot; data-start=&quot;412&quot;&gt;Tomcat线程池&lt;/p&gt;&lt;/li&gt;&lt;li class=&quot;&quot; data-end=&quot;432&quot; data-start=&quot;422&quot;&gt;&lt;p class=&quot;&quot; data-end=&quot;432&quot; data-start=&quot;424&quot;&gt;Dubbo线程池&lt;/p&gt;&lt;/li&gt;&lt;li class=&quot;&quot; data-end=&quot;440&quot; data-start=&quot;433&quot;&gt;&lt;p class=&quot;&quot; data-end=&quot;440&quot; data-start=&quot;435&quot;&gt;异步线程池&lt;/p&gt;&lt;/li&gt;&lt;li class=&quot;&quot; data-end=&quot;457&quot; data-start=&quot;441&quot;&gt;&lt;p class=&quot;&quot; data-end=&quot;457&quot; data-start=&quot;443&quot;&gt;自定义Executor线程池&lt;/p&gt;&lt;/li&gt;&lt;/ul&gt;&lt;p class=&quot;&quot; data-end=&quot;607&quot; data-start=&quot;459&quot;&gt;这些线程是&lt;strong data-end=&quot;472&quot; data-start=&quot;464&quot;&gt;池化复用&lt;/strong&gt;的，一直活着，不结束！&lt;br data-end=&quot;486&quot; data-start=&quot;483&quot;&gt;&lt;br&gt;只要线程活着，&lt;strong data-end=&quot;516&quot; data-start=&quot;493&quot;&gt;它的 threadLocals 就活着&lt;/strong&gt;；&lt;br data-end=&quot;520&quot; data-start=&quot;517&quot;&gt;&lt;br&gt;只要 threadLocals活着，&lt;strong data-end=&quot;557&quot; data-start=&quot;538&quot;&gt;Entry数组还持有value&lt;/strong&gt;；&lt;br data-end=&quot;561&quot; data-start=&quot;558&quot;&gt;&lt;br&gt;即使 key（ThreadLocal 弱引用）被GC了，value还是&lt;strong data-end=&quot;606&quot; data-start=&quot;596&quot;&gt;孤零零地挂着&lt;/strong&gt;。&lt;/p&gt;&lt;p class=&quot;&quot; data-end=&quot;624&quot; data-start=&quot;609&quot;&gt;这就是&lt;strong data-end=&quot;621&quot; data-start=&quot;612&quot;&gt;泄漏的根源&lt;/strong&gt;！！！&lt;/p&gt;" style="text;html=1;align=left;verticalAlign=middle;whiteSpace=wrap;rounded=0;fontSize=16;" vertex="1" parent="1">
          <mxGeometry x="-622" y="257" width="428" height="537" as="geometry" />
        </mxCell>
        <mxCell id="eSL_qnw7aD_urTCDF0X3-15" value="&lt;table data-end=&quot;847&quot; data-start=&quot;125&quot; class=&quot;min-w-full&quot;&gt;&lt;thead data-end=&quot;143&quot; data-start=&quot;125&quot;&gt;&lt;tr data-end=&quot;143&quot; data-start=&quot;125&quot;&gt;&lt;th style=&quot;text-align: left;&quot; data-end=&quot;130&quot; data-start=&quot;125&quot;&gt;编号&lt;/th&gt;&lt;th style=&quot;text-align: left;&quot; data-end=&quot;137&quot; data-start=&quot;130&quot;&gt;最佳实践&lt;/th&gt;&lt;th style=&quot;text-align: left;&quot; data-end=&quot;143&quot; data-start=&quot;137&quot;&gt;说明&lt;/th&gt;&lt;/tr&gt;&lt;/thead&gt;&lt;tbody data-end=&quot;847&quot; data-start=&quot;161&quot;&gt;&lt;tr data-end=&quot;223&quot; data-start=&quot;161&quot;&gt;&lt;td style=&quot;text-align: left;&quot; data-end=&quot;165&quot; data-start=&quot;161&quot; class=&quot;max-w-[calc(var(--thread-content-max-width)*2/3)]&quot;&gt;1&lt;/td&gt;&lt;td style=&quot;text-align: left;&quot; data-end=&quot;197&quot; data-start=&quot;165&quot; class=&quot;max-w-[calc(var(--thread-content-max-width)*2/3)]&quot;&gt;用完 ThreadLocal 要立刻 &lt;code data-end=&quot;196&quot; data-start=&quot;186&quot;&gt;remove()&lt;/code&gt;&lt;/td&gt;&lt;td style=&quot;text-align: left;&quot; data-end=&quot;223&quot; data-start=&quot;197&quot; class=&quot;max-w-[calc(var(--thread-content-max-width)*2/3)]&quot;&gt;保证无论线程是否复用，都及时释放 Entry&lt;/td&gt;&lt;/tr&gt;&lt;tr data-end=&quot;283&quot; data-start=&quot;224&quot;&gt;&lt;td style=&quot;text-align: left;&quot; data-end=&quot;228&quot; data-start=&quot;224&quot; class=&quot;max-w-[calc(var(--thread-content-max-width)*2/3)]&quot;&gt;2&lt;/td&gt;&lt;td style=&quot;text-align: left;&quot; data-end=&quot;258&quot; data-start=&quot;228&quot; class=&quot;max-w-[calc(var(--thread-content-max-width)*2/3)]&quot;&gt;&lt;code data-end=&quot;243&quot; data-start=&quot;230&quot;&gt;try-finally&lt;/code&gt; 包裹 set/remove&lt;/td&gt;&lt;td style=&quot;text-align: left;&quot; data-end=&quot;283&quot; data-start=&quot;258&quot; class=&quot;max-w-[calc(var(--thread-content-max-width)*2/3)]&quot;&gt;确保异常时也能执行 remove，避免忘记&lt;/td&gt;&lt;/tr&gt;&lt;tr data-end=&quot;343&quot; data-start=&quot;284&quot;&gt;&lt;td style=&quot;text-align: left;&quot; data-end=&quot;288&quot; data-start=&quot;284&quot; class=&quot;max-w-[calc(var(--thread-content-max-width)*2/3)]&quot;&gt;3&lt;/td&gt;&lt;td style=&quot;text-align: left;&quot; data-end=&quot;313&quot; data-start=&quot;288&quot; class=&quot;max-w-[calc(var(--thread-content-max-width)*2/3)]&quot;&gt;ThreadLocal 封装成工具类统一管理&lt;/td&gt;&lt;td style=&quot;text-align: left;&quot; data-end=&quot;343&quot; data-start=&quot;313&quot; class=&quot;max-w-[calc(var(--thread-content-max-width)*2/3)]&quot;&gt;统一封装 &lt;code data-end=&quot;336&quot; data-start=&quot;320&quot;&gt;set/get/remove&lt;/code&gt;，减少误用&lt;/td&gt;&lt;/tr&gt;&lt;tr data-end=&quot;396&quot; data-start=&quot;344&quot;&gt;&lt;td style=&quot;text-align: left;&quot; data-end=&quot;348&quot; data-start=&quot;344&quot; class=&quot;max-w-[calc(var(--thread-content-max-width)*2/3)]&quot;&gt;4&lt;/td&gt;&lt;td style=&quot;text-align: left;&quot; data-end=&quot;380&quot; data-start=&quot;348&quot; class=&quot;max-w-[calc(var(--thread-content-max-width)*2/3)]&quot;&gt;避免在高并发、长生命周期线程里滥用 ThreadLocal&lt;/td&gt;&lt;td style=&quot;text-align: left;&quot; data-end=&quot;396&quot; data-start=&quot;380&quot; class=&quot;max-w-[calc(var(--thread-content-max-width)*2/3)]&quot;&gt;比如线程池，特别容易泄漏&lt;/td&gt;&lt;/tr&gt;&lt;tr data-end=&quot;442&quot; data-start=&quot;397&quot;&gt;&lt;td style=&quot;text-align: left;&quot; data-end=&quot;401&quot; data-start=&quot;397&quot; class=&quot;max-w-[calc(var(--thread-content-max-width)*2/3)]&quot;&gt;5&lt;/td&gt;&lt;td style=&quot;text-align: left;&quot; data-end=&quot;418&quot; data-start=&quot;401&quot; class=&quot;max-w-[calc(var(--thread-content-max-width)*2/3)]&quot;&gt;value里面不要塞太大对象&lt;/td&gt;&lt;td style=&quot;text-align: left;&quot; data-end=&quot;442&quot; data-start=&quot;418&quot; class=&quot;max-w-[calc(var(--thread-content-max-width)*2/3)]&quot;&gt;万一泄漏，影响更严重；轻量对象伤害小一点&lt;/td&gt;&lt;/tr&gt;&lt;tr data-end=&quot;501&quot; data-start=&quot;443&quot;&gt;&lt;td style=&quot;text-align: left;&quot; data-end=&quot;447&quot; data-start=&quot;443&quot; class=&quot;max-w-[calc(var(--thread-content-max-width)*2/3)]&quot;&gt;6&lt;/td&gt;&lt;td style=&quot;text-align: left;&quot; data-end=&quot;472&quot; data-start=&quot;447&quot; class=&quot;max-w-[calc(var(--thread-content-max-width)*2/3)]&quot;&gt;尽量少用匿名内部类的 ThreadLocal&lt;/td&gt;&lt;td style=&quot;text-align: left;&quot; data-end=&quot;501&quot; data-start=&quot;472&quot; class=&quot;max-w-[calc(var(--thread-content-max-width)*2/3)]&quot;&gt;匿名内部类容易让外部对象也一起被引用，导致泄漏扩大&lt;/td&gt;&lt;/tr&gt;&lt;tr data-end=&quot;576&quot; data-start=&quot;502&quot;&gt;&lt;td style=&quot;text-align: left;&quot; data-end=&quot;506&quot; data-start=&quot;502&quot; class=&quot;max-w-[calc(var(--thread-content-max-width)*2/3)]&quot;&gt;7&lt;/td&gt;&lt;td style=&quot;text-align: left;&quot; data-end=&quot;533&quot; data-start=&quot;506&quot; class=&quot;max-w-[calc(var(--thread-content-max-width)*2/3)]&quot;&gt;定期检查 ThreadLocalMap（调试时）&lt;/td&gt;&lt;td style=&quot;text-align: left;&quot; data-end=&quot;576&quot; data-start=&quot;533&quot; class=&quot;max-w-[calc(var(--thread-content-max-width)*2/3)]&quot;&gt;生产环境一般用arthas或JVM工具，定期排查脏的 threadLocals&lt;/td&gt;&lt;/tr&gt;&lt;tr data-end=&quot;683&quot; data-start=&quot;577&quot;&gt;&lt;td style=&quot;text-align: left;&quot; data-end=&quot;581&quot; data-start=&quot;577&quot; class=&quot;max-w-[calc(var(--thread-content-max-width)*2/3)]&quot;&gt;8&lt;/td&gt;&lt;td style=&quot;text-align: left;&quot; data-end=&quot;626&quot; data-start=&quot;581&quot; class=&quot;max-w-[calc(var(--thread-content-max-width)*2/3)]&quot;&gt;Spring项目里优先用 &lt;code data-end=&quot;610&quot; data-start=&quot;596&quot;&gt;RequestScope&lt;/code&gt;、&lt;code data-end=&quot;625&quot; data-start=&quot;611&quot;&gt;SessionScope&lt;/code&gt;&lt;/td&gt;&lt;td style=&quot;text-align: left;&quot; data-end=&quot;683&quot; data-start=&quot;626&quot; class=&quot;max-w-[calc(var(--thread-content-max-width)*2/3)] min-w-[calc(var(--thread-content-max-width)/3)]&quot;&gt;减少自己手动 ThreadLocal的场景（比如用Spring的RequestContextHolder）&lt;/td&gt;&lt;/tr&gt;&lt;tr data-end=&quot;760&quot; data-start=&quot;684&quot;&gt;&lt;td style=&quot;text-align: left;&quot; data-end=&quot;688&quot; data-start=&quot;684&quot; class=&quot;max-w-[calc(var(--thread-content-max-width)*2/3)]&quot;&gt;9&lt;/td&gt;&lt;td style=&quot;text-align: left;&quot; data-end=&quot;728&quot; data-start=&quot;688&quot; class=&quot;max-w-[calc(var(--thread-content-max-width)*2/3)]&quot;&gt;不要在 Filter、拦截器里 set ThreadLocal 而忘了清理&lt;/td&gt;&lt;td style=&quot;text-align: left;&quot; data-end=&quot;760&quot; data-start=&quot;728&quot; class=&quot;max-w-[calc(var(--thread-content-max-width)*2/3)]&quot;&gt;Web应用最容易出错的地方：一旦线程池复用，脏数据串线程&lt;/td&gt;&lt;/tr&gt;&lt;tr data-end=&quot;847&quot; data-start=&quot;761&quot;&gt;&lt;td style=&quot;text-align: left;&quot; data-end=&quot;766&quot; data-start=&quot;761&quot; class=&quot;max-w-[calc(var(--thread-content-max-width)*2/3)]&quot;&gt;10&lt;/td&gt;&lt;td style=&quot;text-align: left;&quot; data-end=&quot;803&quot; data-start=&quot;766&quot; class=&quot;max-w-[calc(var(--thread-content-max-width)*2/3)]&quot;&gt;避免把 ThreadLocal 变量声明成 static final&lt;/td&gt;&lt;td style=&quot;text-align: left;&quot; data-end=&quot;847&quot; data-start=&quot;803&quot; class=&quot;max-w-[calc(var(--thread-content-max-width)*2/3)]&quot;&gt;声明成 static final，容易导致ThreadLocal实例本身无法GC&lt;/td&gt;&lt;/tr&gt;&lt;/tbody&gt;&lt;/table&gt;" style="text;html=1;align=center;verticalAlign=middle;whiteSpace=wrap;rounded=0;fontSize=16;" vertex="1" parent="1">
          <mxGeometry x="-606" y="823" width="984" height="390" as="geometry" />
        </mxCell>
        <mxCell id="eSL_qnw7aD_urTCDF0X3-16" value="&lt;b&gt;为啥key 被设计成弱引用，value 只能是强引用&lt;/b&gt;&lt;br&gt;&lt;br&gt;ThreadLocal 的 key 之所以是弱引用（WeakReference），是为了避免因为用户忘记管理 ThreadLocal 对象，导致 key 永远占用内存，造成严重的内存泄漏。&lt;br&gt;&lt;div&gt;&lt;p class=&quot;&quot; data-end=&quot;184&quot; data-start=&quot;180&quot;&gt;简单说：&lt;/p&gt;&lt;ul data-end=&quot;299&quot; data-start=&quot;185&quot;&gt;&lt;li class=&quot;&quot; data-end=&quot;218&quot; data-start=&quot;185&quot;&gt;&lt;p class=&quot;&quot; data-end=&quot;218&quot; data-start=&quot;187&quot;&gt;如果 key 是&lt;strong data-end=&quot;202&quot; data-start=&quot;195&quot;&gt;强引用&lt;/strong&gt;，就算外部业务代码已经不用它了，&lt;/p&gt;&lt;/li&gt;&lt;li class=&quot;&quot; data-end=&quot;255&quot; data-start=&quot;219&quot;&gt;&lt;p class=&quot;&quot; data-end=&quot;255&quot; data-start=&quot;221&quot;&gt;但是只要 ThreadLocalMap 里还挂着它（强引用链还在），&lt;/p&gt;&lt;/li&gt;&lt;li class=&quot;&quot; data-end=&quot;299&quot; data-start=&quot;256&quot;&gt;&lt;p class=&quot;&quot; data-end=&quot;299&quot; data-start=&quot;258&quot;&gt;那么 &lt;strong data-end=&quot;285&quot; data-start=&quot;261&quot;&gt;ThreadLocal实例永远无法被GC&lt;/strong&gt;，也就是&lt;strong data-end=&quot;298&quot; data-start=&quot;289&quot;&gt;key泄漏&lt;/strong&gt;！&lt;br&gt;&lt;br&gt;&lt;strong data-end=&quot;945&quot; data-start=&quot;926&quot;&gt;key弱引用，value强引用&lt;/strong&gt; —— 是一种兼顾了安全性和性能的完美平衡。&lt;br&gt;&lt;br&gt;&lt;b&gt;为了防止 key 强引用造成的内存泄漏问题，通过弱引用使得 ThreadLocal 实例在没有业务强引用时可以及时被 GC 回收，同时 ThreadLocalMap 设计了懒清理机制，确保内存安全和性能之间的平衡&lt;/b&gt;。&lt;br&gt;&lt;br&gt;&lt;br&gt;&lt;br&gt;&lt;br&gt;&lt;br&gt;&lt;br&gt;&lt;/p&gt;&lt;/li&gt;&lt;/ul&gt;&lt;/div&gt;" style="text;html=1;align=left;verticalAlign=middle;whiteSpace=wrap;rounded=0;fontSize=16;" vertex="1" parent="1">
          <mxGeometry x="-555" y="1166" width="728" height="567" as="geometry" />
        </mxCell>
      </root>
    </mxGraphModel>
  </diagram>
</mxfile>
